<!-- Generator: Adobe Illustrator 21.1.0, SVG Export Plug-In  -->
<svg version="1.1"
	 xmlns="http://www.w3.org/2000/svg" xmlns:xlink="http://www.w3.org/1999/xlink" xmlns:a="http://ns.adobe.com/AdobeSVGViewerExtensions/3.0/"
	 x="0px" y="0px" width="103.015px" height="95.031px" viewBox="0 0 103.015 95.031"
	 style="enable-background:new 0 0 103.015 95.031;" xml:space="preserve">
<defs>
</defs>
<path d="M50.873,95.024c-12.346,0-24.692,0.016-37.038-0.005C5.21,95.004,0.039,89.631,0.023,80.619
	c-0.029-17.251-0.035-34.502,0.004-51.752c0.017-7.672,4.498-13.025,11.687-14.106c1.316-0.198,2.673-0.422,3.981-0.289
	c6.171,0.63,11.257,0.295,12.861-8.157c0.765-4.032,4.687-6.278,8.997-6.278c9.176,0,18.354-0.104,27.528,0.036
	c5.622,0.086,8.889,3.693,10.24,9.187c1.023,4.162,3.117,5.834,7.159,5.24c2.288-0.336,4.673-0.157,6.994,0.043
	c8.334,0.719,13.445,6.472,13.483,15.344c0.072,16.717,0.082,33.435-0.004,50.151c-0.047,9.215-5.523,14.961-14.042,14.979
	C76.233,95.044,63.553,95.024,50.873,95.024z M51.253,29.743c-13.104,0.022-24.068,11.628-24.009,25.413
	c0.059,13.78,11.166,25.517,24.067,25.432c13.161-0.087,23.779-11.47,23.799-25.517C75.131,41.033,64.475,29.72,51.253,29.743z"/>
<path d="M51.513,38.459c8.674,0.084,15.517,7.483,15.416,16.667c-0.104,9.499-7.055,16.577-16.121,16.416
	c-8.491-0.151-15.155-7.305-15.204-16.322C35.554,45.809,42.612,38.372,51.513,38.459z"/>
</svg>